<svg width="926" height="667" viewBox="0 0 926 667" fill="none" xmlns="http://www.w3.org/2000/svg">
<rect width="926" height="667" fill="white"/>
<path d="M326.344 541.32V573H318.76L307.672 554.376L304.936 549.192H304.888L305.08 554.664V573H299.128V541.32H306.664L317.752 559.896L320.488 565.128H320.584L320.392 559.656V541.32H326.344ZM344.65 548.52C347.082 548.52 349.21 549.016 351.034 550.008C352.89 551 354.33 552.424 355.354 554.28C356.41 556.136 356.938 558.376 356.938 561C356.938 563.592 356.41 565.832 355.354 567.72C354.33 569.576 352.89 571 351.034 571.992C349.21 572.984 347.082 573.48 344.65 573.48C342.25 573.48 340.122 572.984 338.266 571.992C336.41 571 334.954 569.576 333.898 567.72C332.874 565.832 332.362 563.592 332.362 561C332.362 558.376 332.874 556.136 333.898 554.28C334.954 552.424 336.41 551 338.266 550.008C340.122 549.016 342.25 548.52 344.65 548.52ZM344.65 553.416C343.434 553.416 342.394 553.704 341.53 554.28C340.698 554.824 340.058 555.656 339.61 556.776C339.162 557.896 338.938 559.304 338.938 561C338.938 562.696 339.162 564.104 339.61 565.224C340.058 566.344 340.698 567.192 341.53 567.768C342.394 568.312 343.434 568.584 344.65 568.584C345.834 568.584 346.842 568.312 347.674 567.768C348.538 567.192 349.194 566.344 349.642 565.224C350.09 564.104 350.314 562.696 350.314 561C350.314 559.304 350.09 557.896 349.642 556.776C349.194 555.656 348.538 554.824 347.674 554.28C346.842 553.704 345.834 553.416 344.65 553.416ZM386.184 573.48C384.2 573.48 382.424 572.984 380.856 571.992C379.32 571 378.104 569.576 377.208 567.72C376.344 565.864 375.912 563.64 375.912 561.048C375.912 558.392 376.376 556.136 377.304 554.28C378.232 552.392 379.48 550.968 381.048 550.008C382.648 549.016 384.44 548.52 386.424 548.52C388.536 548.52 390.28 549.128 391.656 550.344C393.032 551.56 393.928 553.128 394.344 555.048L393.72 555.816V538.488H400.296V573H394.392L393.96 565.704L394.776 566.088C394.552 567.592 394.04 568.904 393.24 570.024C392.44 571.112 391.432 571.96 390.216 572.568C389 573.176 387.656 573.48 386.184 573.48ZM388.104 568.44C389.256 568.44 390.248 568.152 391.08 567.576C391.912 566.968 392.552 566.088 393 564.936C393.48 563.784 393.72 562.408 393.72 560.808C393.72 559.272 393.496 557.976 393.048 556.92C392.6 555.832 391.96 555 391.128 554.424C390.296 553.848 389.32 553.56 388.2 553.56C386.408 553.56 385 554.2 383.976 555.48C382.984 556.728 382.488 558.568 382.488 561C382.488 563.432 382.984 565.288 383.976 566.568C384.968 567.816 386.344 568.44 388.104 568.44ZM420.886 557.688C420.886 556.312 420.486 555.24 419.686 554.472C418.918 553.704 417.894 553.32 416.614 553.32C415.43 553.32 414.39 553.624 413.494 554.232C412.598 554.84 411.942 555.848 411.526 557.256L405.91 555.528C406.454 553.416 407.638 551.72 409.462 550.44C411.318 549.16 413.798 548.52 416.902 548.52C419.014 548.52 420.854 548.856 422.422 549.528C423.99 550.168 425.206 551.144 426.07 552.456C426.966 553.768 427.414 555.416 427.414 557.4V567.144C427.414 568.36 427.99 568.968 429.142 568.968C429.686 568.968 430.198 568.888 430.678 568.728L430.294 572.808C429.462 573.224 428.422 573.432 427.174 573.432C426.054 573.432 425.046 573.24 424.15 572.856C423.254 572.472 422.55 571.896 422.038 571.128C421.526 570.328 421.27 569.336 421.27 568.152V567.96L422.422 567.768C422.23 568.984 421.702 570.024 420.838 570.888C419.974 571.72 418.918 572.36 417.67 572.808C416.454 573.256 415.19 573.48 413.878 573.48C412.246 573.48 410.838 573.24 409.654 572.76C408.47 572.248 407.558 571.512 406.918 570.552C406.278 569.592 405.958 568.408 405.958 567C405.958 565.208 406.534 563.752 407.686 562.632C408.838 561.48 410.486 560.696 412.63 560.28L421.654 558.456L421.606 562.536L415.846 563.688C414.758 563.912 413.926 564.216 413.35 564.6C412.806 564.952 412.534 565.544 412.534 566.376C412.534 567.176 412.822 567.784 413.398 568.2C414.006 568.616 414.726 568.824 415.558 568.824C416.23 568.824 416.886 568.744 417.526 568.584C418.166 568.424 418.742 568.168 419.254 567.816C419.766 567.464 420.166 566.984 420.454 566.376C420.742 565.768 420.886 565.032 420.886 564.168V557.688ZM442.327 541.656V565.176C442.327 566.328 442.615 567.176 443.191 567.72C443.799 568.232 444.615 568.488 445.639 568.488C446.439 568.488 447.143 568.376 447.751 568.152C448.359 567.896 448.903 567.56 449.383 567.144L450.439 571.512C449.671 572.12 448.711 572.6 447.559 572.952C446.407 573.304 445.191 573.48 443.911 573.48C442.311 573.48 440.887 573.24 439.639 572.76C438.423 572.28 437.463 571.512 436.759 570.456C436.087 569.4 435.751 567.992 435.751 566.232V543.48L442.327 541.656ZM450.007 549V553.896H431.335V549H450.007ZM468.37 557.688C468.37 556.312 467.97 555.24 467.17 554.472C466.402 553.704 465.378 553.32 464.098 553.32C462.914 553.32 461.874 553.624 460.978 554.232C460.082 554.84 459.426 555.848 459.01 557.256L453.394 555.528C453.938 553.416 455.122 551.72 456.946 550.44C458.802 549.16 461.282 548.52 464.386 548.52C466.498 548.52 468.338 548.856 469.906 549.528C471.474 550.168 472.69 551.144 473.554 552.456C474.45 553.768 474.898 555.416 474.898 557.4V567.144C474.898 568.36 475.474 568.968 476.626 568.968C477.17 568.968 477.682 568.888 478.162 568.728L477.778 572.808C476.946 573.224 475.906 573.432 474.658 573.432C473.538 573.432 472.53 573.24 471.634 572.856C470.738 572.472 470.034 571.896 469.522 571.128C469.01 570.328 468.754 569.336 468.754 568.152V567.96L469.906 567.768C469.714 568.984 469.186 570.024 468.322 570.888C467.458 571.72 466.402 572.36 465.154 572.808C463.938 573.256 462.674 573.48 461.362 573.48C459.73 573.48 458.322 573.24 457.138 572.76C455.954 572.248 455.042 571.512 454.402 570.552C453.762 569.592 453.442 568.408 453.442 567C453.442 565.208 454.018 563.752 455.17 562.632C456.322 561.48 457.97 560.696 460.114 560.28L469.138 558.456L469.09 562.536L463.33 563.688C462.242 563.912 461.41 564.216 460.834 564.6C460.29 564.952 460.018 565.544 460.018 566.376C460.018 567.176 460.306 567.784 460.882 568.2C461.49 568.616 462.21 568.824 463.042 568.824C463.714 568.824 464.37 568.744 465.01 568.584C465.65 568.424 466.226 568.168 466.738 567.816C467.25 567.464 467.65 566.984 467.938 566.376C468.226 565.768 468.37 565.032 468.37 564.168V557.688ZM506.363 538.008C507.483 538.008 508.491 538.136 509.387 538.392C510.315 538.616 511.003 538.904 511.451 539.256L510.539 543.624C510.187 543.4 509.787 543.224 509.339 543.096C508.891 542.968 508.363 542.904 507.755 542.904C506.507 542.904 505.515 543.192 504.779 543.768C504.043 544.312 503.675 545.256 503.675 546.6V549.912L503.963 551.208V573H497.387V546.12C497.387 544.776 497.611 543.592 498.059 542.568C498.507 541.544 499.131 540.696 499.931 540.024C500.731 539.352 501.675 538.856 502.763 538.536C503.883 538.184 505.083 538.008 506.363 538.008ZM511.259 549V553.896H493.211V549H511.259ZM525.728 548.52C528.16 548.52 530.288 549.016 532.112 550.008C533.968 551 535.408 552.424 536.432 554.28C537.488 556.136 538.016 558.376 538.016 561C538.016 563.592 537.488 565.832 536.432 567.72C535.408 569.576 533.968 571 532.112 571.992C530.288 572.984 528.16 573.48 525.728 573.48C523.328 573.48 521.2 572.984 519.344 571.992C517.488 571 516.032 569.576 514.976 567.72C513.952 565.832 513.44 563.592 513.44 561C513.44 558.376 513.952 556.136 514.976 554.28C516.032 552.424 517.488 551 519.344 550.008C521.2 549.016 523.328 548.52 525.728 548.52ZM525.728 553.416C524.512 553.416 523.472 553.704 522.608 554.28C521.776 554.824 521.136 555.656 520.688 556.776C520.24 557.896 520.016 559.304 520.016 561C520.016 562.696 520.24 564.104 520.688 565.224C521.136 566.344 521.776 567.192 522.608 567.768C523.472 568.312 524.512 568.584 525.728 568.584C526.912 568.584 527.92 568.312 528.752 567.768C529.616 567.192 530.272 566.344 530.72 565.224C531.168 564.104 531.392 562.696 531.392 561C531.392 559.304 531.168 557.896 530.72 556.776C530.272 555.656 529.616 554.824 528.752 554.28C527.92 553.704 526.912 553.416 525.728 553.416ZM551.871 573.48C550.271 573.48 548.831 573.192 547.551 572.616C546.271 572.04 545.247 571.128 544.479 569.88C543.743 568.6 543.375 566.952 543.375 564.936V549H549.951V563.352C549.951 565.208 550.335 566.504 551.103 567.24C551.871 567.944 552.975 568.296 554.415 568.296C555.087 568.296 555.743 568.184 556.383 567.96C557.023 567.704 557.583 567.32 558.063 566.808C558.575 566.296 558.975 565.64 559.263 564.84C559.551 564.008 559.695 563.032 559.695 561.912V549H566.271V573H560.415L560.175 568.824C559.375 570.424 558.271 571.608 556.863 572.376C555.487 573.112 553.823 573.48 551.871 573.48ZM573.19 573V549H579.094L579.478 556.2L578.662 555.432C579.046 553.864 579.654 552.568 580.486 551.544C581.318 550.52 582.326 549.768 583.51 549.288C584.726 548.776 586.054 548.52 587.494 548.52C589.158 548.52 590.63 548.84 591.91 549.48C593.222 550.12 594.246 551.096 594.982 552.408C595.75 553.688 596.134 555.304 596.134 557.256V573H589.558V559.128C589.558 557.08 589.158 555.672 588.358 554.904C587.558 554.104 586.518 553.704 585.238 553.704C584.342 553.704 583.462 553.928 582.598 554.376C581.766 554.792 581.078 555.48 580.534 556.44C580.022 557.4 579.766 558.68 579.766 560.28V573H573.19ZM611.981 573.48C609.997 573.48 608.221 572.984 606.653 571.992C605.117 571 603.901 569.576 603.005 567.72C602.141 565.864 601.709 563.64 601.709 561.048C601.709 558.392 602.173 556.136 603.101 554.28C604.029 552.392 605.277 550.968 606.845 550.008C608.445 549.016 610.237 548.52 612.221 548.52C614.333 548.52 616.077 549.128 617.453 550.344C618.829 551.56 619.725 553.128 620.141 555.048L619.517 555.816V538.488H626.093V573H620.189L619.757 565.704L620.573 566.088C620.349 567.592 619.837 568.904 619.037 570.024C618.237 571.112 617.229 571.96 616.013 572.568C614.797 573.176 613.453 573.48 611.981 573.48ZM613.901 568.44C615.053 568.44 616.045 568.152 616.877 567.576C617.709 566.968 618.349 566.088 618.797 564.936C619.277 563.784 619.517 562.408 619.517 560.808C619.517 559.272 619.293 557.976 618.845 556.92C618.397 555.832 617.757 555 616.925 554.424C616.093 553.848 615.117 553.56 613.997 553.56C612.205 553.56 610.797 554.2 609.773 555.48C608.781 556.728 608.285 558.568 608.285 561C608.285 563.432 608.781 565.288 609.773 566.568C610.765 567.816 612.141 568.44 613.901 568.44Z" fill="#055BCB"/>
<path d="M754.951 206.27L745.38 252.62L739.22 246.61L728.74 254.09L720.73 244.14L702.771 257.2L687.42 231.53L670.3 241.56L663.51 232.2L641.771 244.45L635.23 230.44L650.47 156.63L732.17 173.5L754.951 206.27Z" fill="#EBEBEB"/>
<path d="M732.17 173.5L754.95 206.27L726.61 200.42L732.17 173.5Z" fill="#DBDBDB"/>
<path d="M743.34 261.88L729.31 329.88L619.26 307.16L633.19 239.71L639.73 253.71L661.48 241.46L668.26 250.82L685.39 240.8L700.73 266.47L718.7 253.41L726.7 263.35L737.19 255.88L743.34 261.88Z" fill="#EBEBEB"/>
<path d="M585.831 253.91L473.681 260.85L464.771 116.89L548.051 111.73L578.621 137.38L585.831 253.91Z" fill="#EBEBEB"/>
<path d="M548.05 111.73L578.62 137.38L549.74 139.17L548.05 111.73Z" fill="#DBDBDB"/>
<path d="M517.001 208.6L516.561 205.35C515.431 198.62 517.271 191.09 523.121 183.22C528.401 176.22 531.261 171.22 530.941 165.54C530.581 159.14 526.331 155.1 518.421 155.42C513.9 155.655 509.558 157.259 505.971 160.02L502.521 152.29C506.521 149.04 513.521 146.64 520.171 146.29C534.601 145.49 541.621 154.03 542.171 163.56C542.651 172.09 538.231 178.5 532.611 185.99C527.451 192.82 525.761 198.45 526.491 204.82L526.801 208.08L517.001 208.6ZM515.221 226.31C514.961 221.67 517.911 218.23 522.301 217.99C526.691 217.75 529.891 220.83 530.151 225.48C530.391 229.87 527.701 233.41 523.061 233.67C518.631 233.92 515.431 230.7 515.181 226.31H515.221Z" fill="#DBDBDB"/>
<path d="M236.48 184.11L225.2 179L223.63 182.45C223.398 182.943 223.036 183.364 222.584 183.667C222.131 183.97 221.604 184.144 221.06 184.17C220.44 184.19 219.822 184.25 219.21 184.35C218.673 184.43 218.124 184.362 217.622 184.154C217.12 183.947 216.684 183.606 216.36 183.17L214.15 180.08L204.08 187.3L206.29 190.39C206.597 190.836 206.778 191.357 206.813 191.897C206.849 192.438 206.737 192.978 206.49 193.46C206.205 194.01 205.948 194.574 205.72 195.15C205.522 195.658 205.189 196.102 204.757 196.435C204.326 196.768 203.812 196.977 203.27 197.04L199.5 197.41L200.71 209.74L204.5 209.36C205.044 209.317 205.589 209.422 206.077 209.665C206.565 209.908 206.977 210.28 207.27 210.74C207.43 211 207.6 211.25 207.78 211.5C207.96 211.75 208.14 211.99 208.33 212.23C208.675 212.65 208.897 213.157 208.971 213.696C209.045 214.234 208.969 214.782 208.75 215.28L207.17 218.76L218.46 223.88L220.03 220.41C220.264 219.917 220.628 219.498 221.082 219.197C221.537 218.895 222.065 218.724 222.61 218.7C223.223 218.675 223.834 218.615 224.44 218.52C224.977 218.44 225.526 218.508 226.028 218.716C226.53 218.923 226.966 219.264 227.29 219.7L229.5 222.79L239.58 215.57L237.37 212.48C237.053 212.038 236.866 211.516 236.831 210.974C236.796 210.431 236.913 209.889 237.17 209.41C237.449 208.863 237.699 208.302 237.92 207.73C238.112 207.218 238.443 206.77 238.876 206.437C239.309 206.103 239.826 205.896 240.37 205.84L244.16 205.46L242.94 193.13L239.15 193.5C238.61 193.547 238.067 193.445 237.582 193.203C237.096 192.961 236.687 192.59 236.4 192.13C236.23 191.87 236.06 191.62 235.88 191.37C235.7 191.12 235.52 190.87 235.33 190.64C234.987 190.215 234.767 189.704 234.693 189.163C234.619 188.622 234.694 188.071 234.91 187.57L236.48 184.11ZM230.08 195.52C231.249 197.152 231.909 199.094 231.974 201.1C232.04 203.107 231.509 205.088 230.449 206.793C229.388 208.498 227.846 209.85 226.018 210.678C224.189 211.506 222.156 211.774 220.175 211.446C218.194 211.119 216.355 210.212 214.89 208.839C213.425 207.466 212.4 205.69 211.944 203.735C211.489 201.779 211.623 199.733 212.331 197.854C213.039 195.976 214.288 194.349 215.92 193.18C218.108 191.613 220.829 190.979 223.485 191.418C226.14 191.857 228.512 193.332 230.08 195.52Z" fill="#EBEBEB"/>
<path d="M746.38 347.71L738.86 352.05L740.19 354.35C740.389 354.68 740.488 355.06 740.475 355.445C740.463 355.83 740.339 356.203 740.12 356.52C739.89 356.88 739.67 357.25 739.47 357.64C739.306 357.985 739.046 358.276 738.722 358.478C738.397 358.68 738.022 358.785 737.64 358.78H735V367.47H737.66C738.042 367.465 738.417 367.57 738.742 367.772C739.066 367.974 739.326 368.265 739.49 368.61C739.69 369 739.91 369.37 740.14 369.73C740.359 370.047 740.483 370.42 740.495 370.805C740.507 371.19 740.409 371.57 740.21 371.9L738.88 374.2L746.4 378.54L747.74 376.23C747.934 375.902 748.216 375.635 748.553 375.459C748.89 375.282 749.27 375.203 749.65 375.23H750.93C751.31 375.204 751.689 375.284 752.026 375.46C752.363 375.637 752.645 375.903 752.84 376.23L754.18 378.55L761.69 374.21L760.36 371.9C760.171 371.568 760.078 371.19 760.092 370.809C760.106 370.427 760.227 370.057 760.44 369.74C760.67 369.38 760.89 369 761.09 368.62C761.254 368.275 761.514 367.984 761.838 367.782C762.163 367.58 762.538 367.475 762.92 367.48H765.58V358.79H762.9C762.518 358.795 762.143 358.69 761.818 358.488C761.494 358.286 761.234 357.995 761.07 357.65C760.87 357.27 760.65 356.89 760.42 356.53C760.207 356.213 760.086 355.843 760.072 355.461C760.058 355.08 760.151 354.702 760.34 354.37L761.67 352.06L754.16 347.72L752.82 350C752.626 350.328 752.344 350.595 752.007 350.771C751.67 350.948 751.29 351.027 750.91 351H750.27H749.63C749.249 351.026 748.868 350.946 748.53 350.769C748.191 350.593 747.907 350.327 747.71 350L746.38 347.71ZM750.27 356.01C751.679 356.008 753.057 356.424 754.229 357.206C755.402 357.987 756.316 359.099 756.856 360.401C757.396 361.702 757.538 363.134 757.264 364.517C756.989 365.899 756.311 367.168 755.315 368.165C754.318 369.161 753.049 369.839 751.667 370.114C750.284 370.388 748.852 370.246 747.551 369.706C746.249 369.166 745.137 368.252 744.356 367.079C743.574 365.907 743.158 364.529 743.16 363.12C743.159 362.185 743.342 361.26 743.698 360.396C744.055 359.532 744.579 358.747 745.239 358.086C745.899 357.425 746.684 356.9 747.547 356.542C748.41 356.184 749.335 356 750.27 356V356.01Z" fill="#EBEBEB"/>
<path d="M259.3 147.16L252.41 152.44L254 154.55C254.238 154.851 254.383 155.213 254.421 155.594C254.458 155.975 254.385 156.359 254.21 156.7C254.019 157.089 253.852 157.49 253.71 157.9C253.587 158.261 253.366 158.581 253.07 158.823C252.775 159.065 252.419 159.22 252.04 159.27L249.4 159.61L250.52 168.22L253.16 167.88C253.545 167.826 253.936 167.882 254.29 168.042C254.644 168.201 254.946 168.457 255.16 168.78C255.401 169.128 255.662 169.462 255.94 169.78C256.198 170.063 256.369 170.415 256.433 170.792C256.497 171.17 256.451 171.558 256.3 171.91L255.3 174.37L263.3 177.7L264.3 175.24C264.449 174.887 264.694 174.583 265.007 174.362C265.32 174.141 265.688 174.012 266.07 173.99L266.71 173.92L267.34 173.82C267.71 173.75 268.093 173.783 268.445 173.916C268.798 174.048 269.107 174.274 269.34 174.57L270.97 176.7L277.86 171.42L276.25 169.31C276.018 169.005 275.875 168.641 275.838 168.26C275.801 167.878 275.871 167.494 276.04 167.15C276.23 166.763 276.397 166.366 276.54 165.96C276.664 165.599 276.885 165.279 277.18 165.037C277.475 164.795 277.832 164.64 278.21 164.59L280.85 164.25L279.73 155.64L277.09 155.98C276.707 156.035 276.316 155.98 275.962 155.823C275.609 155.665 275.306 155.411 275.09 155.09C274.84 154.73 274.58 154.39 274.3 154.09C274.067 153.801 273.917 153.454 273.864 153.086C273.811 152.718 273.858 152.343 274 152L275 149.54L267 146.21L266 148.67C265.85 149.022 265.604 149.324 265.292 149.545C264.98 149.766 264.612 149.896 264.23 149.92L263.59 149.98L263 150C262.63 150.07 262.248 150.037 261.896 149.904C261.543 149.772 261.233 149.546 261 149.25L259.3 147.16ZM264.23 154.89C265.623 154.711 267.038 154.948 268.296 155.573C269.555 156.197 270.6 157.179 271.3 158.397C272 159.614 272.324 161.012 272.231 162.413C272.138 163.814 271.632 165.157 270.777 166.271C269.922 167.385 268.756 168.221 267.427 168.673C266.097 169.125 264.663 169.174 263.306 168.812C261.949 168.451 260.729 167.695 259.801 166.641C258.873 165.587 258.278 164.282 258.09 162.89C257.965 161.961 258.025 161.017 258.267 160.111C258.508 159.206 258.926 158.357 259.497 157.613C260.067 156.87 260.779 156.246 261.592 155.779C262.404 155.312 263.301 155.009 264.23 154.89Z" fill="#EBEBEB"/>
<path d="M207.821 372.78C208.196 363.113 208.063 353.433 207.421 343.78C205.99 323.847 202.95 304.063 198.331 284.62C195.791 273.68 192.671 262.92 189.411 252.17C189.311 251.84 188.791 251.93 188.881 252.27C198.951 290.17 207.211 329.27 206.641 368.67C206.481 379.67 205.201 390.52 204.161 401.48C204.161 401.77 204.611 401.89 204.681 401.59C206.751 392.18 207.431 382.36 207.821 372.78Z" fill="#EBEBEB"/>
<path d="M188.88 252.24C188.88 252.24 173.64 290.94 177.05 300C180.46 309.06 187.5 311 187.5 311C187.5 311 178.17 324.32 184.69 336.81C191.21 349.3 205.69 348.71 206.69 362.87C206.66 362.94 207.46 303.73 188.88 252.24Z" fill="#EBEBEB"/>
<path d="M205 338.49C205.024 338.426 205.024 338.354 205 338.29C202.999 311.869 198.042 285.756 190.22 260.44C190.22 260.37 190.07 260.39 190.09 260.44C193.11 271.773 195.776 283.153 198.09 294.58C196.041 292.639 193.538 291.243 190.81 290.52C190.81 290.52 190.73 290.58 190.81 290.6C193.676 291.65 196.252 293.364 198.33 295.6C198.77 297.85 199.21 300.09 199.62 302.34C196.21 298.53 191.49 296.64 186.76 294.84C186.749 294.845 186.74 294.852 186.733 294.862C186.727 294.872 186.724 294.883 186.724 294.895C186.724 294.907 186.727 294.918 186.733 294.928C186.74 294.938 186.749 294.945 186.76 294.95C191.69 296.95 196.59 299.53 199.93 303.78C201.09 310.2 202.11 316.643 202.99 323.11C200.527 320.53 197.37 318.721 193.9 317.9C193.79 317.9 193.73 318.03 193.84 318.06C197.404 319.11 200.587 321.174 203 324H203.06C203.36 326.267 203.646 328.543 203.92 330.83C202.015 329.218 199.864 327.922 197.55 326.99C197.49 326.99 197.45 327.06 197.55 327.08C199.912 328.103 202.075 329.535 203.94 331.31C203.94 331.31 203.99 331.31 204.02 331.31C204.27 333.48 204.52 335.65 204.74 337.82C201.306 333.669 196.849 330.484 191.81 328.58C191.788 328.58 191.768 328.588 191.753 328.603C191.738 328.618 191.73 328.639 191.73 328.66C191.73 328.681 191.738 328.702 191.753 328.717C191.768 328.732 191.788 328.74 191.81 328.74C196.786 330.933 201.157 334.299 204.55 338.55C204.587 338.597 204.637 338.631 204.694 338.649C204.751 338.667 204.812 338.667 204.87 338.65C205.2 341.98 205.5 345.31 205.74 348.65C205.74 348.7 205.82 348.7 205.82 348.65C205.56 345.297 205.286 341.91 205 338.49Z" fill="white"/>
<path d="M192.75 286.71C189.99 284.992 186.837 284.008 183.59 283.85C183.574 283.85 183.559 283.856 183.548 283.868C183.537 283.879 183.53 283.894 183.53 283.91C183.53 283.926 183.537 283.941 183.548 283.952C183.559 283.964 183.574 283.97 183.59 283.97C186.73 284.565 189.776 285.574 192.65 286.97C192.77 287 192.86 286.79 192.75 286.71Z" fill="white"/>
<path d="M194.6 327.68C192.479 326.462 190.143 325.665 187.72 325.33C187.64 325.33 187.63 325.44 187.72 325.46C190.086 325.935 192.375 326.736 194.52 327.84C194.61 327.89 194.69 327.73 194.6 327.68Z" fill="white"/>
<path d="M247.9 300.67C241.453 305.126 235.532 310.3 230.25 316.09C224.803 322.221 220.602 329.354 217.88 337.09C212.088 353.208 208.974 370.166 208.66 387.29C208.466 396.773 209.376 406.247 211.37 415.52C211.387 415.587 211.428 415.646 211.486 415.684C211.544 415.721 211.615 415.735 211.683 415.722C211.751 415.709 211.812 415.671 211.852 415.615C211.893 415.558 211.91 415.489 211.9 415.42C209.418 399.056 209.513 382.405 212.18 366.07C214.8 350.07 218.91 332.65 229.09 319.64C234.63 312.55 241.54 306.98 248.37 301.22C248.73 300.9 248.27 300.41 247.9 300.67Z" fill="#EBEBEB"/>
<path d="M210.9 375.75C214.57 369.814 218.883 364.301 223.76 359.31C231.39 351.68 237.81 346.26 238.81 341.22C239.81 336.18 231.17 332.46 231.17 332.46C231.17 332.46 241.72 334.36 244.61 329.93C247.5 325.5 248.89 299.84 248.89 299.84C248.89 299.84 229.69 313.55 220.74 332.77C211.79 351.99 210.9 375.75 210.9 375.75Z" fill="#EBEBEB"/>
<path d="M242 323.91C240.736 323.722 239.454 323.678 238.18 323.78C238.03 323.78 238.04 324.04 238.18 324.05C239.44 324.05 240.71 323.99 241.97 324.05C241.984 324.046 241.998 324.039 242.008 324.028C242.018 324.017 242.025 324.004 242.028 323.989C242.031 323.975 242.031 323.96 242.025 323.946C242.02 323.932 242.012 323.919 242 323.91Z" fill="white"/>
<path d="M228.21 348.8C226.183 348.841 224.178 349.241 222.29 349.98C222.29 349.98 222.29 350.08 222.29 350.07C224.29 349.6 226.22 349.41 228.2 349.07C228.226 349.059 228.248 349.04 228.264 349.017C228.28 348.994 228.289 348.966 228.29 348.938C228.291 348.91 228.284 348.882 228.27 348.858C228.256 348.833 228.235 348.813 228.21 348.8Z" fill="white"/>
<path d="M224.07 340.2C223.228 340.193 222.388 340.267 221.56 340.42C221.545 340.426 221.531 340.436 221.522 340.449C221.513 340.463 221.508 340.479 221.508 340.495C221.508 340.511 221.513 340.527 221.522 340.541C221.531 340.554 221.545 340.564 221.56 340.57C222.398 340.618 223.239 340.582 224.07 340.46C224.104 340.46 224.138 340.446 224.162 340.422C224.186 340.398 224.2 340.364 224.2 340.33C224.2 340.295 224.186 340.262 224.162 340.238C224.138 340.214 224.104 340.2 224.07 340.2Z" fill="white"/>
<path d="M154.61 327.89C160.859 330.009 166.847 332.83 172.46 336.3C178.283 340 183.333 344.796 187.33 350.42C195.739 362.125 202.177 375.127 206.39 388.91C208.739 396.542 210.189 404.422 210.71 412.39C210.699 412.442 210.671 412.488 210.63 412.521C210.589 412.554 210.538 412.572 210.485 412.572C210.432 412.572 210.381 412.554 210.34 412.521C210.299 412.488 210.271 412.442 210.26 412.39C208.495 398.574 204.574 385.121 198.64 372.52C192.81 360.17 185.46 347.03 174.22 338.85C168.1 334.4 161.22 331.48 154.36 328.4C154 328.28 154.25 327.77 154.61 327.89Z" fill="#EBEBEB"/>
<path d="M201.91 380.1C197.566 376.147 192.8 372.683 187.7 369.77C179.76 365.36 173.31 362.46 171.34 358.61C169.37 354.76 175.5 349.76 175.5 349.76C175.5 349.76 167.4 353.76 164.04 350.81C160.68 347.86 153.62 327.46 153.62 327.46C153.62 327.46 172.33 334.11 184 347.6C195.67 361.09 201.91 380.1 201.91 380.1Z" fill="#EBEBEB"/>
<path d="M186.38 361.32C184.541 361.192 182.694 361.419 180.94 361.99C180.94 361.99 180.94 362.08 180.94 362.07C182.729 361.763 184.537 361.576 186.35 361.51C186.48 361.51 186.51 361.33 186.38 361.32Z" fill="white"/>
<path d="M170.06 339.92C169.221 339.851 168.376 339.899 167.55 340.06C167.46 340.06 167.49 340.22 167.55 340.21C168.38 340.12 169.19 340.15 170.01 340.13C170.035 340.131 170.06 340.123 170.081 340.108C170.101 340.092 170.115 340.07 170.121 340.046C170.127 340.021 170.124 339.995 170.113 339.972C170.102 339.949 170.083 339.931 170.06 339.92Z" fill="white"/>
<path d="M226.041 438.18H183.811L189.831 394.07L191.371 382.76H218.481L220.021 394.07L226.041 438.18Z" fill="#DBDBDB"/>
<path d="M220.02 394.07H189.83L191.37 382.76H218.48L220.02 394.07Z" fill="#C7C7C7"/>
<path d="M222.35 378.84H187.49V388.42H222.35V378.84Z" fill="#DBDBDB"/>
<path d="M156.96 438.18L232.97 437.94L308.98 437.85L461 437.68L613.02 437.85L689.03 437.94L765.04 438.18L689.03 438.43L613.02 438.51L461 438.68L308.98 438.51L232.97 438.42L156.96 438.18Z" fill="#263238"/>
<path d="M463 512.71C621.362 512.71 749.74 498.643 749.74 481.29C749.74 463.937 621.362 449.87 463 449.87C304.638 449.87 176.26 463.937 176.26 481.29C176.26 498.643 304.638 512.71 463 512.71Z" fill="#EBEBEB"/>
<path d="M396.25 476.09C393.92 476.88 327.11 477.09 324.55 475.51C323.55 474.91 322.98 465.18 322.55 453.4C322.46 450.86 322.39 448.23 322.33 445.57L317 409.93L361.67 409.64L365.88 445.29L365.71 453.13C365.71 453.13 391.33 464.48 393.95 466.54C396.57 468.6 398.58 475.3 396.25 476.09Z" fill="#EB9481"/>
<path d="M396.25 476.09C393.92 476.88 327.11 477.09 324.55 475.51C323.37 474.77 322.73 460.56 322.37 445.57L365.83 445.29L365.66 453.13C365.66 453.13 391.28 464.48 393.9 466.54C396.52 468.6 398.58 475.3 396.25 476.09Z" fill="white"/>
<path d="M396.25 476.09C393.92 476.88 327.11 477.09 324.55 475.51C323.55 474.91 322.98 465.18 322.55 453.4L365.62 453.13C365.62 453.13 391.24 464.48 393.86 466.54C396.48 468.6 398.58 475.3 396.25 476.09Z" fill="#A6A6A6"/>
<path d="M395.28 473.42C384.08 473.18 338.88 473.29 327.79 473.91C327.7 473.91 327.7 473.97 327.79 473.98C338.89 474.45 384.09 473.98 395.28 473.6C395.52 473.59 395.52 473.42 395.28 473.42Z" fill="#263238"/>
<path d="M389.59 464.15C388.344 464.122 387.107 464.353 385.955 464.828C384.804 465.303 383.763 466.012 382.9 466.91C381.326 468.513 380.437 470.664 380.42 472.91C380.42 472.98 380.54 472.98 380.55 472.91C380.922 470.698 381.999 468.665 383.621 467.115C385.243 465.565 387.323 464.581 389.55 464.31C389.571 464.315 389.594 464.312 389.612 464.301C389.631 464.29 389.645 464.271 389.65 464.25C389.655 464.229 389.652 464.206 389.641 464.188C389.629 464.169 389.611 464.155 389.59 464.15Z" fill="#263238"/>
<path d="M370 454.23C365.52 454.18 360.33 455.78 357.55 459.46C357.45 459.6 357.65 459.75 357.78 459.68C361.694 457.614 365.817 455.971 370.08 454.78C370.145 454.762 370.202 454.72 370.24 454.663C370.277 454.606 370.293 454.537 370.283 454.47C370.273 454.402 370.239 454.34 370.186 454.296C370.134 454.252 370.068 454.229 370 454.23Z" fill="#263238"/>
<path d="M373.48 455.56C368.99 455.56 363.8 457.12 361.03 460.79C360.92 460.94 361.12 461.09 361.26 461.02C365.168 458.947 369.289 457.3 373.55 456.11C373.615 456.092 373.671 456.051 373.709 455.995C373.746 455.939 373.762 455.872 373.754 455.805C373.745 455.738 373.713 455.676 373.662 455.631C373.612 455.586 373.547 455.561 373.48 455.56Z" fill="#263238"/>
<path d="M376.94 456.9C372.46 456.9 367.27 458.45 364.49 462.13C364.39 462.27 364.59 462.42 364.72 462.35C368.634 460.284 372.757 458.641 377.02 457.45C377.086 457.432 377.143 457.39 377.18 457.333C377.218 457.276 377.233 457.207 377.223 457.14C377.213 457.072 377.179 457.01 377.127 456.966C377.075 456.922 377.008 456.899 376.94 456.9Z" fill="#263238"/>
<path d="M380.41 458.24C375.92 458.19 370.73 459.79 367.96 463.47C367.85 463.61 368.06 463.76 368.19 463.69C372.103 461.622 376.226 459.98 380.49 458.79C380.555 458.772 380.612 458.73 380.65 458.673C380.687 458.616 380.703 458.547 380.693 458.48C380.683 458.412 380.649 458.35 380.596 458.306C380.544 458.262 380.478 458.239 380.41 458.24Z" fill="#263238"/>
<path d="M330.609 463.26C325.609 463.26 325.609 471.11 330.609 471.08C335.609 471.05 335.649 463.23 330.609 463.26Z" fill="#263238"/>
<path d="M374.81 442.25C372.54 440.37 369.68 442.25 368.29 444.18C365.976 447.591 364.597 451.55 364.29 455.66C364.29 455.75 364.36 455.79 364.43 455.79C364.448 455.875 364.486 455.954 364.54 456.021C364.595 456.088 364.665 456.141 364.744 456.175C364.824 456.209 364.91 456.224 364.996 456.218C365.083 456.212 365.166 456.185 365.24 456.14C368.42 453.93 372.1 451.95 374.51 448.82C375.88 447 377 444 374.81 442.25ZM369.35 451.79C367.81 452.92 366.22 453.97 364.72 455.16C365.52 452.92 366.21 450.66 367.23 448.5C367.701 447.464 368.243 446.462 368.85 445.5C369.85 444.01 374.21 440.25 374.67 445.12C374.93 447.79 371.18 450.45 369.35 451.79Z" fill="#263238"/>
<path d="M353.13 457.36C357.03 457.94 361.06 456.82 364.89 456.21C364.973 456.188 365.05 456.148 365.115 456.091C365.179 456.034 365.23 455.963 365.262 455.883C365.294 455.803 365.307 455.717 365.299 455.632C365.292 455.546 365.265 455.463 365.22 455.39C365.235 455.379 365.246 455.364 365.254 455.348C365.263 455.332 365.267 455.313 365.267 455.295C365.267 455.277 365.263 455.259 365.254 455.242C365.246 455.226 365.235 455.211 365.22 455.2C362.143 452.456 358.397 450.569 354.36 449.73C352 449.28 348.66 449.93 348.36 452.86C348 455.62 350.85 457 353.13 457.36ZM350.41 454.82C347.41 450.98 353.14 450.65 354.86 451.05C355.976 451.329 357.072 451.683 358.14 452.11C360.327 453.017 362.467 454.035 364.55 455.16C362.65 455.35 360.78 455.69 358.89 455.95C356.63 456.25 352.09 456.93 350.41 454.82Z" fill="#263238"/>
<path d="M251.319 245.2C251.319 245.2 303.189 333.44 304.579 339.64C306.709 349.16 317.999 443.17 317.999 443.17L371.999 442.17C371.999 442.17 362.699 359.28 353.889 331.97C347.549 312.3 301.769 247.06 301.769 247.06L251.319 245.2Z" fill="#37474F"/>
<path d="M367.089 433.93C359.339 433.87 331.869 433.56 321.549 434.52C321.469 434.52 321.479 434.66 321.549 434.67C325.099 435.18 359.329 434.39 367.079 434.14C367.096 434.146 367.113 434.148 367.13 434.146C367.147 434.144 367.164 434.138 367.178 434.128C367.192 434.119 367.204 434.106 367.213 434.091C367.221 434.076 367.226 434.059 367.227 434.042C367.228 434.025 367.224 434.007 367.217 433.992C367.21 433.976 367.2 433.962 367.186 433.951C367.173 433.94 367.157 433.933 367.14 433.929C367.124 433.925 367.106 433.926 367.089 433.93Z" fill="#263238"/>
<path d="M260.169 253.3C263.569 258.63 267.169 263.85 270.629 269.14C274.089 274.43 277.569 279.72 280.999 285C287.839 295.667 294.506 306.403 300.999 317.21C304.168 322.219 306.879 327.504 309.099 333C311.126 338.497 312.649 344.167 313.649 349.94C314.709 355.73 315.409 361.58 316.059 367.43C316.726 373.65 317.423 379.873 318.149 386.1C319.569 398.84 320.993 411.58 322.419 424.32C322.589 425.88 322.759 427.44 322.919 429.01C322.919 429.24 322.529 429.28 322.499 429.01C320.909 416.36 319.589 403.66 318.149 391.01C317.429 384.697 316.713 378.387 315.999 372.08C315.329 366.21 314.689 360.33 313.779 354.5C312.944 348.745 311.674 343.062 309.979 337.5C308.112 331.74 305.61 326.206 302.519 321C296.269 310.21 289.649 299.61 283.029 289C276.409 278.39 269.609 267.69 262.629 257.21C261.769 255.92 260.899 254.63 259.999 253.36C259.929 253.29 260.109 253.2 260.169 253.3Z" fill="#263238"/>
<path d="M268.32 481.29C265.86 481.14 202.32 455.4 200.56 452.96C200.481 452.816 200.447 452.653 200.46 452.49C200.46 450.3 204.87 442.66 208.55 432.62C208.78 431.98 210.42 429 212.69 424.99C219 414 230 395.07 230 395.07L271.53 411.57L251.65 441.32L248.56 448.52C248.56 448.52 268.05 468.67 269.69 471.52C271.33 474.37 270.77 481.43 268.32 481.29Z" fill="#EB9481"/>
<path d="M268.32 481.29C265.86 481.14 202.32 455.4 200.56 452.96C200.481 452.816 200.447 452.653 200.46 452.49C200.46 450.3 204.87 442.66 208.55 432.62C208.78 431.98 210.42 429 212.69 424.99L251.69 441.32L248.6 448.52C248.6 448.52 268.09 468.67 269.73 471.52C271.37 474.37 270.77 481.43 268.32 481.29Z" fill="white"/>
<path d="M268.32 481.29C265.86 481.14 202.32 455.4 200.56 452.96C199.88 452.03 202.72 443.36 208.56 432.62L248.56 448.53C248.56 448.53 268.05 468.66 269.7 471.53C271.35 474.4 270.77 481.43 268.32 481.29Z" fill="#A6A6A6"/>
<path d="M268.42 478.45C258.13 474.03 216.19 457.17 205.68 453.59C205.59 453.59 205.57 453.59 205.68 453.65C215.79 458.25 257.86 474.77 268.38 478.65C268.58 478.7 268.64 478.54 268.42 478.45Z" fill="#263238"/>
<path d="M266.62 467.72C265.479 467.219 264.246 466.96 263 466.96C261.754 466.96 260.521 467.219 259.38 467.72C257.328 468.618 255.702 470.273 254.84 472.34C254.84 472.4 254.93 472.45 254.96 472.39C256.139 470.473 257.907 468.989 260 468.161C262.094 467.334 264.399 467.207 266.57 467.8C266.587 467.795 266.601 467.785 266.61 467.77C266.62 467.755 266.623 467.737 266.62 467.72Z" fill="#263238"/>
<path d="M252.19 451.18C248.06 449.45 242.64 448.99 238.69 451.36C238.54 451.45 238.69 451.66 238.82 451.65C243.223 451.203 247.661 451.227 252.06 451.72C252.127 451.727 252.195 451.71 252.251 451.671C252.307 451.631 252.346 451.573 252.362 451.507C252.378 451.441 252.369 451.371 252.338 451.311C252.306 451.251 252.253 451.204 252.19 451.18Z" fill="#263238"/>
<path d="M254.9 453.72C250.77 451.99 245.35 451.53 241.4 453.9C241.25 453.99 241.4 454.2 241.53 454.19C245.933 453.738 250.372 453.762 254.77 454.26C254.837 454.267 254.905 454.25 254.961 454.211C255.017 454.172 255.056 454.113 255.072 454.047C255.088 453.981 255.079 453.911 255.048 453.851C255.016 453.791 254.963 453.744 254.9 453.72Z" fill="#263238"/>
<path d="M257.62 456.26C253.48 454.53 248.06 454.07 244.12 456.44C243.96 456.53 244.12 456.74 244.24 456.73C248.643 456.278 253.082 456.302 257.48 456.8C257.549 456.812 257.62 456.797 257.679 456.759C257.737 456.721 257.78 456.662 257.797 456.594C257.815 456.526 257.807 456.454 257.774 456.393C257.741 456.331 257.686 456.283 257.62 456.26Z" fill="#263238"/>
<path d="M260.33 458.8C256.19 457.07 250.78 456.61 246.83 458.97C246.67 459.07 246.83 459.28 246.95 459.27C251.353 458.818 255.792 458.842 260.19 459.34C260.259 459.352 260.33 459.337 260.389 459.299C260.447 459.261 260.49 459.202 260.507 459.134C260.525 459.066 260.516 458.994 260.484 458.933C260.451 458.871 260.396 458.823 260.33 458.8Z" fill="#263238"/>
<path d="M212.279 444.77C207.609 442.91 204.709 450.18 209.399 452.04C214.089 453.9 216.999 446.63 212.279 444.77Z" fill="#263238"/>
<path d="M261.14 441.88C259.73 439.29 256.4 439.93 254.37 441.22C250.95 443.511 248.192 446.659 246.37 450.35C246.362 450.366 246.358 450.384 246.357 450.402C246.357 450.42 246.361 450.438 246.369 450.454C246.377 450.471 246.388 450.485 246.402 450.496C246.416 450.508 246.432 450.516 246.45 450.52C246.45 450.85 246.67 451.24 247.06 451.16C250.85 450.29 255 449.84 258.4 447.84C260.35 446.68 262.47 444.33 261.14 441.88ZM252.49 448.67C250.64 449.14 248.78 449.52 246.95 450.06C248.464 448.236 250.069 446.491 251.76 444.83C252.592 444.037 253.478 443.302 254.41 442.63C255.86 441.63 261.34 439.78 259.94 444.47C259.17 447.06 254.7 448.11 252.49 448.67Z" fill="#263238"/>
<path d="M235.37 447.75C238.77 449.75 242.92 450.22 246.7 451.1C247.09 451.19 247.35 450.8 247.32 450.46C247.339 450.458 247.357 450.451 247.372 450.44C247.387 450.429 247.4 450.415 247.408 450.397C247.416 450.38 247.419 450.362 247.418 450.343C247.417 450.324 247.41 450.306 247.4 450.29C245.581 446.592 242.822 443.436 239.4 441.14C237.4 439.84 234.05 439.19 232.63 441.77C231.21 444.35 233.38 446.58 235.37 447.75ZM233.81 444.37C232.42 439.68 237.89 441.54 239.34 442.55C240.271 443.223 241.153 443.962 241.98 444.76C243.668 446.424 245.27 448.173 246.78 450C244.95 449.46 243.09 449.07 241.24 448.6C239 448 234.57 447 233.81 444.37Z" fill="#263238"/>
<path d="M254.88 439.66L208.39 420.89C208.39 420.89 266.03 336.14 266.45 329.83C266.83 324.25 241.51 275.63 240.52 261.46C239.44 246.16 246.8 234.33 254.9 226.98L302.85 247.37C302.85 247.37 297.79 255.46 289.85 259.97C289.85 259.97 314.44 316.17 313.04 333.45C311.64 350.73 254.88 439.66 254.88 439.66Z" fill="#37474F"/>
<path d="M256.94 430.82C250.22 427.93 252.19 428.66 245.43 425.82C242.13 424.44 220.43 415.41 217.09 414.66C217.02 414.66 216.97 414.76 217.04 414.8C219.93 416.57 241.81 425.22 245.14 426.54C251.95 429.22 250.02 428.38 256.86 430.98C256.87 430.994 256.883 431.004 256.899 431.011C256.914 431.018 256.932 431.021 256.949 431.02C256.966 431.018 256.982 431.012 256.996 431.003C257.01 430.993 257.021 430.98 257.029 430.965C257.037 430.95 257.04 430.933 257.039 430.916C257.039 430.898 257.034 430.882 257.025 430.867C257.016 430.853 257.003 430.841 256.988 430.833C256.973 430.824 256.957 430.82 256.94 430.82Z" fill="#263238"/>
<path d="M297.71 258.94C292.718 260.104 287.834 261.689 283.11 263.68C283.091 263.687 283.074 263.697 283.059 263.71C283.043 263.724 283.031 263.74 283.022 263.758C283.014 263.776 283.008 263.796 283.007 263.816C283.006 263.836 283.009 263.856 283.015 263.875C283.022 263.894 283.032 263.912 283.045 263.927C283.059 263.942 283.075 263.954 283.093 263.963C283.111 263.972 283.131 263.977 283.151 263.978C283.171 263.979 283.191 263.977 283.21 263.97C288.11 262.54 293.09 261.2 297.91 259.51C298.28 259.38 298.09 258.86 297.71 258.94Z" fill="#263238"/>
<path d="M292 257C291.534 257.829 291.123 258.687 290.77 259.57C290.424 260.24 290.211 260.97 290.14 261.72C290.14 261.87 290.34 261.9 290.43 261.81C290.931 261.21 291.336 260.535 291.63 259.81C292.04 259.02 292.46 258.24 292.85 257.43C293.12 256.84 292.31 256.46 292 257Z" fill="#263238"/>
<path d="M292.6 252.46C292.9 251.72 293.19 250.99 293.5 250.25C293.81 249.51 294.2 248.75 294.5 247.97C294.5 247.85 294.74 247.97 294.69 248.06C294.39 248.8 294.2 249.58 293.97 250.34C293.74 251.1 293.48 251.86 293.23 252.62C292.76 254.03 292.23 255.43 291.58 256.8C292.366 256.839 293.152 256.703 293.88 256.4C294.623 255.925 295.194 255.224 295.51 254.4C295.93 253.58 296.32 252.74 296.75 251.92C297.279 251.033 297.724 250.099 298.08 249.13C298.08 249.01 298.32 249.13 298.27 249.22C297.618 251.27 296.763 253.249 295.72 255.13C295.27 255.86 294.92 256.63 294.1 256.91C293.212 257.158 292.283 257.223 291.37 257.1C291.25 257.1 291.11 257.1 291.15 256.92C291.559 255.41 292.043 253.922 292.6 252.46Z" fill="#263238"/>
<path d="M290.56 261.8C292.27 265.41 293.77 269.01 295.36 272.61C296.95 276.21 298.36 279.69 299.79 283.27C302.65 290.49 305.21 297.85 307.46 305.27C308.57 308.95 309.6 312.66 310.52 316.4C311.533 320.128 312.275 323.925 312.74 327.76C313.141 331.589 312.802 335.459 311.74 339.16C310.637 342.818 309.222 346.374 307.51 349.79C306.46 351.95 306.11 351.66 306.61 350.57C308.04 347.47 311.79 338.08 311.52 330.19C311.301 326.413 310.719 322.665 309.78 319C308.907 315.22 307.923 311.47 306.83 307.75C304.7 300.41 302.17 293.22 299.57 286.04C298.11 282.04 296.57 278.04 295.07 274.04C293.57 270.04 292.07 266.36 290.39 261.94C290.34 261.76 290.51 261.69 290.56 261.8Z" fill="#263238"/>
<path d="M255.269 249.87C256.099 249.56 257.269 250.07 258.109 250.21C259.197 250.395 260.296 250.505 261.399 250.54C262.491 250.578 263.583 250.542 264.669 250.43C265.763 250.402 266.835 250.118 267.799 249.6C269.381 248.448 270.737 247.014 271.799 245.37C273.065 243.69 274.11 241.855 274.909 239.91C274.909 239.79 275.119 239.91 275.079 239.99C274.729 241.1 274.469 242.22 274.079 243.31C273.648 244.334 273.133 245.321 272.539 246.26C271.577 248.15 270.153 249.766 268.399 250.96C266.469 252.06 263.989 251.96 261.839 251.87C260.592 251.797 259.352 251.634 258.129 251.38C257.249 251.19 255.769 251.05 255.209 250.28C255.183 250.251 255.163 250.216 255.152 250.178C255.141 250.14 255.138 250.1 255.143 250.061C255.149 250.022 255.163 249.985 255.185 249.952C255.207 249.919 255.236 249.891 255.269 249.87Z" fill="#263238"/>
<path d="M221.66 412C229.3 400.427 236.8 388.76 244.16 377C251.52 365.24 258.78 353.39 265.94 341.45C267.65 338.6 269.62 335.76 270.72 332.6C271.92 329.17 271.24 325.84 270.16 322.48C268.12 316.35 265.736 310.341 263.02 304.48C260.34 298.57 257.45 292.76 254.61 286.93C251.77 281.1 248.8 275.34 246.61 269.26C244.61 263.45 243.8 257.43 245.36 251.41C246.92 245.39 250.28 240.07 253.79 235.06C254.71 233.74 255.66 232.43 256.59 231.06C256.66 230.96 256.81 231.06 256.74 231.18C252.87 236.4 249.1 241.93 246.83 248.06C245.669 251.082 245.021 254.275 244.91 257.51C244.891 260.793 245.401 264.059 246.42 267.18C248.3 273.26 251.27 279.01 254.04 284.73C256.81 290.45 259.77 296.37 262.5 302.26C265.316 308.188 267.819 314.26 270 320.45C270.93 323.2 272 326.08 271.92 329.03C271.85 332.26 270.31 335.17 268.71 337.89C261.71 349.74 254.54 361.45 247.24 373.09C239.94 384.73 232.43 396.37 224.83 407.89L221.95 412.24C221.8 412.42 221.54 412.21 221.66 412Z" fill="#263238"/>
<path d="M305.509 193.47C309.839 202.97 331.709 216.06 341.949 217.47C349.309 218.47 371.689 218.83 379.359 217.66C388.359 216.28 381.479 192.03 376.169 192.66C361.569 194.36 349.169 196.26 345.269 196.26C340.509 196.26 314.759 188 311.659 186.83C304.059 184 303.059 188.08 305.509 193.47Z" fill="#EB9481"/>
<path d="M305.65 196C311.13 204.11 329.34 217.37 329.34 217.37L331.87 211.77L340.24 193.25C340.24 193.25 323.51 188 312.5 185.6C311.204 185.305 309.886 185.118 308.56 185.04C301.53 184.66 300.92 189 305.65 196Z" fill="#0A5FCD"/>
<path d="M305.65 196C311.13 204.11 329.34 217.37 329.34 217.37L331.87 211.77C325.08 203.88 314.59 191.93 308.56 185.06C301.53 184.66 300.92 189 305.65 196Z" fill="#263238"/>
<path d="M326.06 213.61C327.45 210.2 333.63 196.47 335.17 193.61C335.27 193.41 335.43 193.43 335.34 193.61C332.659 200.438 329.608 207.114 326.2 213.61C326.16 213.73 326 213.69 326.06 213.61Z" fill="#263238"/>
<path d="M373.49 192.91C382.37 191.75 393.36 189.76 402.67 193.71C403.716 194.12 404.593 194.87 405.16 195.84C409.36 197.54 409.82 200.03 409.82 200.03C413.25 202.81 413.37 205.43 413.37 205.43C413.37 205.43 418.29 207.43 417.54 210.65C416.72 214.21 409.98 210.65 405.08 210.94C393.83 211.64 378.08 215.77 374.83 216.29L373.49 192.91Z" fill="#EB9481"/>
<path d="M392.78 203.39C396.07 203.165 399.371 203.165 402.66 203.39C406.242 203.839 409.786 204.558 413.26 205.54C413.283 205.548 413.307 205.547 413.329 205.536C413.351 205.526 413.367 205.508 413.375 205.485C413.383 205.462 413.382 205.438 413.371 205.416C413.361 205.395 413.343 205.378 413.32 205.37C406.793 202.809 399.688 202.09 392.78 203.29C392.62 203.27 392.62 203.4 392.78 203.39Z" fill="#263238"/>
<path d="M390.69 193C396.18 193.28 399.61 194.16 405.13 195.82V195.76C399.05 193.22 396.56 192.98 390.66 192.76C390.47 192.84 390.48 193 390.69 193Z" fill="#263238"/>
<path d="M391.58 212.64C390.15 213.31 390.5 214.06 393.23 214.69C395.96 215.32 407.31 215.51 406.91 219.47C406.51 223.43 390.5 222.93 386.03 221.53C381.56 220.13 374.83 216.29 374.83 216.29C378 215.76 385.44 213.75 391.58 212.64Z" fill="#EB9481"/>
<path d="M317.4 208.61C317.33 210.32 317.17 212.06 316.93 213.79C316.93 213.72 316.93 213.66 317 213.6C317.33 212.7 317.66 211.78 318.06 210.91C318.06 210.91 318.16 210.91 318.15 210.91C317.958 211.863 317.67 212.795 317.29 213.69C317.11 214.12 316.94 214.54 316.75 214.96C316.63 215.73 316.49 216.49 316.34 217.25C316.04 218.68 314.69 224.76 314.34 225.79C314.28 226 314.02 225.95 314.04 225.71C314.11 224.59 315.24 218.26 315.47 216.82C315.917 214.04 316.514 211.286 317.26 208.57C317.31 208.52 317.41 208.56 317.4 208.61Z" fill="#263238"/>
<path d="M307 254.08C304.33 255.45 300.89 257.58 285.39 254.53C284.39 254.33 283.45 254.09 282.47 253.8C267.94 249.44 250.47 232.35 249.52 231.14C249.52 231.14 272.61 193.71 302.14 181.94C305.79 180.49 311.83 183.29 315.14 186.78C316.33 188.03 318.92 197.22 317.93 204.66C316.94 212.1 309.66 252.71 307 254.08Z" fill="#0A5FCD"/>
<path d="M304.92 204.32C305.032 205.902 304.81 207.489 304.27 208.98C304.143 207.398 304.365 205.807 304.92 204.32Z" fill="white"/>
<path d="M294.849 229.81C294.913 230.597 294.886 231.389 294.769 232.17C294.673 232.957 294.482 233.729 294.199 234.47C294.13 233.68 294.157 232.884 294.279 232.1C294.382 231.317 294.573 230.549 294.849 229.81Z" fill="white"/>
<path d="M277.74 210.54C277.852 212.125 277.631 213.716 277.09 215.21C276.964 213.625 277.186 212.031 277.74 210.54Z" fill="white"/>
<path d="M311.509 228.51C311.573 229.3 311.546 230.096 311.429 230.88C311.333 231.667 311.142 232.439 310.859 233.18C310.791 232.39 310.817 231.594 310.939 230.81C311.041 230.024 311.232 229.252 311.509 228.51Z" fill="white"/>
<path d="M289.54 207.24C290.327 207.173 291.119 207.197 291.9 207.31C292.687 207.41 293.46 207.605 294.2 207.89C292.618 208.004 291.03 207.782 289.54 207.24Z" fill="white"/>
<path d="M270.12 225.65C271.702 225.538 273.289 225.76 274.78 226.3C273.198 226.427 271.607 226.205 270.12 225.65Z" fill="white"/>
<path d="M293 245.58C294.582 245.466 296.17 245.688 297.66 246.23C296.078 246.355 294.488 246.133 293 245.58Z" fill="white"/>
<path d="M264.13 238.34C265.712 238.228 267.299 238.45 268.79 238.99C267.208 239.115 265.617 238.893 264.13 238.34Z" fill="white"/>
<path d="M304.77 186.4C306.351 186.288 307.939 186.51 309.43 187.05C307.848 187.162 306.26 186.94 304.77 186.4Z" fill="white"/>
<path d="M299.119 192.78C298.614 193.388 298.036 193.932 297.399 194.4C296.78 194.879 296.109 195.288 295.399 195.62C295.902 195.016 296.472 194.473 297.099 194C297.725 193.519 298.403 193.11 299.119 192.78Z" fill="white"/>
<path d="M268.33 210.91C267.818 211.512 267.237 212.053 266.6 212.52C265.986 213.008 265.314 213.418 264.6 213.74C265.114 213.14 265.694 212.6 266.33 212.13C266.944 211.644 267.616 211.234 268.33 210.91Z" fill="white"/>
<path d="M306.78 219.09C306.268 219.696 305.688 220.239 305.05 220.71C304.435 221.196 303.763 221.606 303.05 221.93C303.561 221.324 304.142 220.781 304.78 220.31C305.398 219.829 306.069 219.419 306.78 219.09Z" fill="white"/>
<path d="M281.879 234.77C281.368 235.376 280.787 235.919 280.149 236.39C279.534 236.875 278.862 237.284 278.149 237.61C278.661 237.004 279.242 236.461 279.879 235.99C280.498 235.509 281.169 235.099 281.879 234.77Z" fill="white"/>
<path d="M316.32 197.67C315.808 198.276 315.228 198.819 314.59 199.29C313.97 199.769 313.299 200.178 312.59 200.51C313.101 199.904 313.682 199.361 314.32 198.89C314.936 198.405 315.607 197.996 316.32 197.67Z" fill="white"/>
<path d="M315.8 215.84C315.194 215.328 314.651 214.748 314.18 214.11C313.693 213.496 313.284 212.824 312.96 212.11C313.568 212.616 314.112 213.193 314.58 213.83C315.058 214.454 315.467 215.128 315.8 215.84Z" fill="white"/>
<path d="M260.3 228.36C259.694 227.848 259.151 227.268 258.68 226.63C258.199 226.012 257.789 225.341 257.46 224.63C258.066 225.142 258.609 225.722 259.08 226.36C259.565 226.976 259.974 227.647 260.3 228.36Z" fill="white"/>
<path d="M309.05 243.25C308.442 242.744 307.898 242.167 307.43 241.53C306.951 240.91 306.542 240.24 306.21 239.53C306.816 240.042 307.359 240.622 307.83 241.26C308.313 241.874 308.722 242.542 309.05 243.25Z" fill="white"/>
<path d="M284.619 200.8C284.014 200.292 283.47 199.715 282.999 199.08C282.522 198.459 282.113 197.788 281.779 197.08C282.387 197.586 282.931 198.163 283.399 198.8C283.876 199.421 284.285 200.092 284.619 200.8Z" fill="white"/>
<path d="M285.05 251.73C284.444 251.218 283.901 250.638 283.43 250C282.95 249.381 282.541 248.71 282.21 248C282.818 248.506 283.362 249.083 283.83 249.72C284.311 250.342 284.72 251.016 285.05 251.73Z" fill="white"/>
<path d="M289.2 221.69C288.6 221.176 288.06 220.595 287.59 219.96C287.102 219.347 286.692 218.675 286.37 217.96C286.973 218.472 287.513 219.052 287.98 219.69C288.466 220.305 288.876 220.976 289.2 221.69Z" fill="white"/>
<path d="M309.73 196.75C305.96 196.05 302.42 188.26 301.97 183.02C301.97 182.66 303.73 179.81 305.74 176.24C306.96 174.07 308.25 171.62 309.28 169.3C309.49 168.83 310.72 170.42 310.72 170.42L313.4 172.42L322.25 179.21C320.142 181.739 318.352 184.516 316.92 187.48C316.778 187.801 316.671 188.136 316.6 188.48C316.596 188.537 316.596 188.593 316.6 188.65C316.05 190.63 313.36 197.42 309.73 196.75Z" fill="#EB9481"/>
<path d="M316.6 188.53C316.596 188.587 316.596 188.643 316.6 188.7C316.075 188.546 315.563 188.349 315.07 188.11C305.38 183.57 309.65 170.59 309.65 170.59L313.45 172.47L322.3 179.26C320.193 181.789 318.403 184.566 316.97 187.53C316.811 187.849 316.687 188.184 316.6 188.53Z" fill="#263238"/>
<path d="M332.42 151.58C332.42 151.58 336.85 154.39 336.87 159.39C336.89 164.39 334.87 169.28 334.45 169.46C334.03 169.64 332.42 151.58 332.42 151.58Z" fill="#263238"/>
<path d="M310.439 154.18C307.779 159.43 307.919 175.98 311.239 180.24C316.059 186.42 325.339 188.55 330.949 182.44C336.379 176.52 335.819 154.96 331.949 150.94C326.319 145 314.379 146.41 310.439 154.18Z" fill="#EB9481"/>
<path d="M324.56 167.43C324.56 167.43 324.47 167.49 324.48 167.53C324.54 168.66 324.42 169.96 323.41 170.36C323.41 170.36 323.41 170.43 323.41 170.42C324.66 170.22 324.8 168.49 324.56 167.43Z" fill="#263238"/>
<path d="M323.53 166.28C321.71 166.18 321.65 169.82 323.34 169.91C325.03 170 325.05 166.36 323.53 166.28Z" fill="#263238"/>
<path d="M330.73 167.39C330.73 167.39 330.82 167.39 330.82 167.49C330.76 168.62 330.89 169.92 331.91 170.31C331.91 170.31 331.91 170.38 331.91 170.37C330.65 170.18 330.5 168.45 330.73 167.39Z" fill="#263238"/>
<path d="M331.759 166.23C333.569 166.12 333.659 169.76 331.979 169.86C330.299 169.96 330.239 166.32 331.759 166.23Z" fill="#263238"/>
<path d="M322.389 163.51C322.867 163.374 323.338 163.214 323.799 163.03C324.325 162.935 324.803 162.668 325.159 162.27C325.246 162.124 325.282 161.954 325.262 161.786C325.242 161.618 325.167 161.461 325.049 161.34C324.779 161.134 324.458 161.004 324.121 160.964C323.783 160.924 323.441 160.974 323.129 161.11C322.455 161.291 321.87 161.715 321.489 162.3C321.413 162.439 321.379 162.597 321.39 162.756C321.401 162.914 321.457 163.066 321.552 163.193C321.646 163.321 321.776 163.418 321.924 163.474C322.073 163.53 322.234 163.543 322.389 163.51Z" fill="#263238"/>
<path d="M333 165.12C332.513 165.011 332.033 164.878 331.56 164.72C331.033 164.65 330.544 164.408 330.17 164.03C330.073 163.891 330.027 163.723 330.038 163.555C330.049 163.386 330.116 163.226 330.23 163.1C330.488 162.88 330.8 162.733 331.134 162.674C331.469 162.616 331.813 162.649 332.13 162.77C332.814 162.912 333.42 163.304 333.83 163.87C333.915 164.004 333.96 164.16 333.959 164.319C333.958 164.478 333.91 164.633 333.822 164.766C333.734 164.898 333.61 165.002 333.464 165.065C333.318 165.128 333.156 165.147 333 165.12Z" fill="#263238"/>
<path d="M321.999 178.12C322.269 178.39 322.529 178.75 322.939 178.79C323.36 178.79 323.775 178.701 324.159 178.53C324.159 178.53 324.229 178.53 324.159 178.59C323.996 178.81 323.775 178.981 323.521 179.085C323.268 179.189 322.99 179.222 322.719 179.18C322.491 179.118 322.286 178.99 322.129 178.812C321.973 178.634 321.872 178.415 321.839 178.18C321.831 178.159 321.832 178.135 321.842 178.115C321.851 178.094 321.868 178.078 321.889 178.07C321.911 178.062 321.934 178.063 321.955 178.072C321.975 178.082 321.991 178.099 321.999 178.12Z" fill="#263238"/>
<path d="M328.539 173.3C328.539 173.3 328.589 174.98 328.539 175.77C327.003 175.607 325.451 175.661 323.929 175.93C323.569 176.01 323.609 175.72 324.019 175.53C325.245 174.97 326.61 174.789 327.939 175.01C328.019 174.8 327.809 172.41 327.939 172.42C328.544 172.539 329.13 172.741 329.679 173.02C329.679 169.5 329.119 166.02 329.169 162.5C329.169 162.38 329.359 162.36 329.379 162.5C330.09 166.224 330.425 170.009 330.379 173.8C330.389 174.23 328.839 173.46 328.539 173.3Z" fill="#263238"/>
<path d="M326.29 175.17C325.891 176.219 325.152 177.103 324.19 177.68C322.68 178.29 322.19 176.92 323.71 175.68C324.507 175.277 325.4 175.101 326.29 175.17Z" fill="#263238"/>
<path d="M324.72 177.37C324.56 177.5 324.381 177.605 324.19 177.68C322.8 178.24 322.25 177.13 323.37 176.01C324.13 176.07 325 176.35 324.72 177.37Z" fill="#FF99BA"/>
<path d="M309.68 168.33C311.51 168.89 313.61 163.39 314.21 161.33C314.73 159.47 315.33 153.56 315.42 153.15C315.51 152.74 323.42 158.38 328 157.04C332.58 155.7 335.69 151.55 335.76 149.62C335.83 147.69 330.1 142.79 325.15 142.54C320.2 142.29 313.49 148.54 313.49 148.54C314.3 147.62 315.036 146.637 315.69 145.6C315.61 145.38 312.41 146.66 311.82 148.94C311.82 148.94 312.46 146.07 312.22 146.02C311.98 145.97 309.49 148.42 310.05 150.28C310.05 150.28 307.17 152.77 306.91 155.5C306.65 158.23 307.53 167.67 309.68 168.33Z" fill="#263238"/>
<path d="M331.28 156C329.918 156.739 328.451 157.265 326.93 157.56C325.222 157.712 323.504 157.437 321.93 156.76C320.343 156.147 318.87 155.275 317.57 154.18C316.42 153.24 315.39 152.09 314.16 151.25C313.85 151.03 313.5 151.48 313.69 151.76C315.742 154.659 318.673 156.819 322.05 157.92C323.618 158.431 325.292 158.527 326.908 158.197C328.524 157.868 330.027 157.124 331.27 156.04C331.27 156.04 331.3 156 331.28 156Z" fill="#263238"/>
<path d="M311.59 167.84C311.59 167.84 308.75 162.08 306.19 163.01C303.63 163.94 305.19 171.91 307.82 173.37C308.142 173.578 308.503 173.72 308.881 173.785C309.259 173.851 309.647 173.839 310.02 173.752C310.394 173.664 310.746 173.501 311.055 173.274C311.364 173.047 311.624 172.76 311.82 172.43L311.59 167.84Z" fill="#EB9481"/>
<path d="M306.7 165.28C306.7 165.28 306.64 165.28 306.7 165.36C308.52 166.44 309.26 168.36 309.7 170.36C309.617 170.148 309.489 169.957 309.325 169.8C309.161 169.642 308.965 169.522 308.75 169.448C308.535 169.374 308.306 169.347 308.08 169.37C307.854 169.393 307.635 169.464 307.44 169.58C307.38 169.58 307.44 169.69 307.44 169.69C307.797 169.634 308.163 169.691 308.488 169.852C308.812 170.013 309.078 170.271 309.25 170.59C309.536 171.124 309.764 171.687 309.93 172.27C309.99 172.46 310.32 172.41 310.29 172.2C310.72 169.71 309.32 165.94 306.7 165.28Z" fill="#263238"/>
<path d="M292.84 193.56C290.84 204.89 303.12 243.06 310.99 250.19C322.7 260.79 344.35 267.76 352.2 270.03C355.62 271.03 365.08 246.96 361.62 245.37C354.21 242 331.19 234.8 329 233C326.81 231.2 313.61 212.13 307.73 201.15C299.86 186.37 293.83 187.83 292.84 193.56Z" fill="#EB9481"/>
<path d="M355.789 243.25C355.789 243.25 366.009 245.86 372.599 247.87C376.279 249 382.419 251.49 384.749 253.55C388.229 256.64 400.809 271.76 397.209 274.89C393.949 277.73 384.789 263.36 384.789 263.36C384.789 263.36 395.309 277.04 390.789 279.73C386.269 282.42 377.999 264.81 377.999 264.81C377.999 264.81 388.489 279.11 383.359 281.14C379.479 282.67 371.159 267.14 371.159 267.14C371.159 267.14 380.099 279.49 376.159 281.24C371.819 283.18 363.249 269.32 363.249 269.32C352.529 272.09 346.249 269.02 342.119 266.32C341.149 265.66 355.789 243.25 355.789 243.25Z" fill="#EB9481"/>
<path d="M381.45 258.39C382.75 259.95 384.07 261.53 385.22 263.2C386.37 264.87 387.46 266.59 388.45 268.36C389.791 270.649 390.865 273.085 391.65 275.62C389.93 271.22 385.9 265.17 384.75 263.5C383.6 261.83 382.53 260.1 381.39 258.43C381.36 258.39 381.42 258.35 381.45 258.39Z" fill="#263238"/>
<path d="M375.34 262.44C377.56 264.2 382.21 270.74 384 275.13C384.08 275.31 384 275.3 383.87 275.13C382.47 272.96 376.79 264.56 375.29 262.47C375.26 262.44 375.31 262.41 375.34 262.44Z" fill="#263238"/>
<path d="M369.47 265C372.228 267.893 374.407 271.288 375.89 275C375.96 275.18 375.82 275.15 375.71 275C373.64 271.63 372.04 269 369.36 265.09C369.32 265 369.41 264.91 369.47 265Z" fill="#263238"/>
<path d="M304 194.39C294.87 181.48 289.41 186.26 291.24 200.28C292.96 213.39 297.55 229.01 297.55 229.01L320.55 217.85C320.55 217.85 309.81 202.66 304 194.39Z" fill="#0A5FCD"/>
<path d="M309.55 199.47C309.853 200.199 310.071 200.961 310.2 201.74C310.341 202.522 310.391 203.317 310.35 204.11C310.05 203.377 309.836 202.612 309.71 201.83C309.561 201.053 309.508 200.26 309.55 199.47Z" fill="white"/>
<path d="M295.92 207.32C297.388 206.723 298.967 206.45 300.55 206.52C299.82 206.82 299.059 207.035 298.28 207.16C297.503 207.308 296.71 207.362 295.92 207.32Z" fill="white"/>
<path d="M296.51 187.24C295.891 188.701 294.967 190.014 293.8 191.09C294.419 189.629 295.343 188.316 296.51 187.24Z" fill="white"/>
<path d="M316 213.35C315.696 214.081 315.311 214.776 314.85 215.42C314.402 216.072 313.878 216.67 313.29 217.2C313.909 215.739 314.833 214.426 316 213.35Z" fill="white"/>
<path d="M299.999 221.18C299.266 220.88 298.571 220.494 297.929 220.03C297.277 219.582 296.679 219.058 296.149 218.47C297.611 219.089 298.923 220.013 299.999 221.18Z" fill="white"/>
<path d="M307 198.28C308.23 199.97 309.5 201.62 310.76 203.28C310.44 202.44 310.16 201.59 309.92 200.73H309.98C310.23 201.39 310.52 202.04 310.76 202.73L311.12 203.73C311.151 203.798 311.177 203.868 311.2 203.94C312.2 205.23 313.2 206.52 314.12 207.84C315.25 209.42 316.34 211.02 317.44 212.62C318.54 214.22 319.65 216.21 320.84 217.82C320.95 217.96 318.84 218.82 318.61 218.93C318.38 219.04 318.26 218.85 318.48 218.78C318.7 218.71 320.38 217.68 320.4 217.66C319.3 216.04 318.03 214.55 316.88 212.98C315.73 211.41 314.59 209.84 313.48 208.25C311.23 205.01 309.17 201.65 306.93 198.4L307 198.28Z" fill="#263238"/>
<path d="M291.779 209.56C292.129 210.24 292.509 210.91 292.779 211.61L293.159 212.48C292.629 209.99 292.159 207.48 291.609 204.99C292.669 208.99 293.739 213.08 294.719 217.14C295.649 221.02 296.779 224.94 297.319 228.9C298.017 228.594 298.739 228.35 299.479 228.17C298.737 228.651 297.937 229.037 297.099 229.32C295.894 225.293 294.893 221.208 294.099 217.08C293.849 215.96 293.619 214.84 293.379 213.72C293.119 213.04 292.809 212.39 292.499 211.72C292.189 211.05 291.909 210.3 291.629 209.59C291.689 209.55 291.759 209.51 291.779 209.56Z" fill="#263238"/>
<path d="M297.889 225.15C301.089 223.35 314.459 216.43 317.449 215.15C317.659 215.06 317.769 215.15 317.559 215.29C311.213 218.978 304.67 222.316 297.959 225.29C297.879 225.31 297.799 225.2 297.889 225.15Z" fill="#263238"/>
<path d="M664.32 488.05H359.64L403.69 238.2H708.37L664.32 488.05Z" fill="#0A5FCD"/>
<path d="M507.969 212.32H408.259L403.689 238.2H510.399L507.969 212.32Z" fill="#0A5FCD"/>
<g opacity="0.1">
<path d="M664.32 488.05H359.64L403.69 238.2H708.37L664.32 488.05Z" fill="black"/>
<path d="M507.969 212.32H408.259L403.689 238.2H510.399L507.969 212.32Z" fill="black"/>
</g>
<path d="M397.5 222.88C396.833 220.018 396.833 217.042 397.5 214.18C398.167 217.042 398.167 220.018 397.5 222.88Z" fill="#263238"/>
<path d="M388.639 225.44C387.621 224.384 386.744 223.201 386.029 221.92C385.28 220.666 384.692 219.322 384.279 217.92C385.3 218.97 386.178 220.15 386.889 221.43C387.637 222.689 388.225 224.036 388.639 225.44Z" fill="#263238"/>
<path d="M382.24 232.09C379.43 231.236 376.854 229.747 374.71 227.74C376.112 228.147 377.456 228.732 378.71 229.48C379.991 230.199 381.177 231.076 382.24 232.09Z" fill="#263238"/>
<path d="M380 241.05C377.138 241.717 374.161 241.717 371.3 241.05C374.161 240.383 377.138 240.383 380 241.05Z" fill="#263238"/>
<path d="M382.6 249.91C381.54 250.923 380.357 251.8 379.08 252.52C377.826 253.268 376.482 253.853 375.08 254.26C376.136 253.242 377.319 252.364 378.6 251.65C379.852 250.899 381.197 250.314 382.6 249.91Z" fill="#263238"/>
<path d="M389.24 256.3C388.388 259.114 386.9 261.694 384.89 263.84C385.297 262.436 385.885 261.092 386.64 259.84C387.352 258.554 388.226 257.365 389.24 256.3Z" fill="#263238"/>
<path d="M398.2 258.51C398.549 259.933 398.717 261.395 398.7 262.86C398.722 264.325 398.553 265.788 398.2 267.21C397.842 265.789 397.673 264.326 397.7 262.86C397.683 261.395 397.851 259.933 398.2 258.51Z" fill="#263238"/>
<path d="M407.06 256C408.078 257.056 408.955 258.239 409.67 259.52C410.421 260.772 411.006 262.117 411.41 263.52C409.399 261.374 407.911 258.794 407.06 255.98V256Z" fill="#263238"/>
<path d="M413.449 249.3C414.853 249.704 416.197 250.289 417.449 251.04C418.73 251.754 419.913 252.632 420.969 253.65C419.566 253.246 418.221 252.661 416.969 251.91C415.688 251.196 414.505 250.318 413.449 249.3Z" fill="#263238"/>
<path d="M415.66 240.34C418.525 239.673 421.505 239.673 424.37 240.34C421.505 241.007 418.525 241.007 415.66 240.34Z" fill="#263238"/>
<path d="M413.1 231.48C414.159 230.468 415.341 229.594 416.62 228.88C417.87 228.121 419.215 227.533 420.62 227.13C418.474 229.14 415.894 230.629 413.08 231.48H413.1Z" fill="#263238"/>
<path d="M406.449 225.09C406.861 223.69 407.445 222.346 408.189 221.09C408.904 219.809 409.781 218.626 410.799 217.57C410.395 218.973 409.811 220.318 409.059 221.57C408.345 222.851 407.467 224.034 406.449 225.09Z" fill="#263238"/>
<path d="M663.87 488.05H358.54L315.18 247.27H620.52L663.87 488.05Z" fill="#0A5FCD"/>
<path d="M420.99 394.46C427.998 394.46 433.68 388.778 433.68 381.77C433.68 374.761 427.998 369.08 420.99 369.08C413.981 369.08 408.3 374.761 408.3 381.77C408.3 388.778 413.981 394.46 420.99 394.46Z" fill="#263238"/>
<path d="M521.31 394.46C528.319 394.46 534 388.778 534 381.77C534 374.761 528.319 369.08 521.31 369.08C514.302 369.08 508.62 374.761 508.62 381.77C508.62 388.778 514.302 394.46 521.31 394.46Z" fill="#263238"/>
<path d="M489.38 396.49L488.68 395.16C488.62 395.04 482.06 382.92 468.87 382.92C456.87 382.92 453.87 394.33 453.79 394.82L453.43 396.27L450.52 395.57L450.87 394.11C450.87 393.97 454.45 379.92 468.87 379.92C483.87 379.92 491.04 393.2 491.34 393.77L492.04 395.09L489.38 396.49Z" fill="#263238"/>
<path d="M643.71 380.8L643.5 379.8C644.15 379.66 644.79 379.51 645.43 379.34L645.68 380.34C645 380.51 644.37 380.66 643.71 380.8Z" fill="#263238"/>
<path d="M649.55 379.19L649.23 378.25C650.48 377.82 651.73 377.35 652.94 376.84L653.33 377.76C652.1 378.28 650.83 378.76 649.55 379.19ZM657 376L656.55 375.12C657.72 374.51 658.89 373.85 660 373.12L660.52 373.97C659.38 374.76 658.19 375.43 657 376ZM663.88 371.77L663.29 370.96C664.37 370.17 665.41 369.34 666.39 368.49L667.05 369.24C666 370.15 665 371 663.87 371.81L663.88 371.77ZM669.98 366.45L669.25 365.76C670.17 364.76 671.04 363.76 671.84 362.76L672.63 363.37C671.8 364.47 670.91 365.5 670 366.49L669.98 366.45ZM674.93 360.05L674.08 359.52C674.771 358.403 675.386 357.24 675.92 356.04L676.84 356.45C676.274 357.701 675.633 358.917 674.92 360.09L674.93 360.05ZM678.24 352.63L677.24 352.35C677.605 351.095 677.876 349.815 678.05 348.52L679.05 348.65C678.884 350.01 678.61 351.354 678.23 352.67L678.24 352.63ZM679.35 344.63H678.35V344.34C678.35 343.13 678.28 341.9 678.16 340.69L679.16 340.59C679.291 341.836 679.358 343.087 679.36 344.34L679.35 344.63ZM677.55 336.8C677.281 335.511 676.947 334.236 676.55 332.98L677.55 332.68C677.96 333.98 678.31 335.3 678.55 336.59L677.55 336.8ZM675.18 329.27C674.7 328.09 674.18 326.88 673.54 325.66L674.44 325.21C675.05 326.45 675.61 327.69 676.1 328.89L675.18 329.27ZM671.68 322.14C671.06 321.05 670.38 319.9 669.68 318.72L670.53 318.19C671.26 319.38 671.95 320.54 672.53 321.65L671.68 322.14ZM667.5 315.35C666.77 314.25 666.03 313.14 665.27 312.03L666.1 311.47C666.86 312.58 667.6 313.69 668.33 314.81L667.5 315.35ZM663 308.73C662.25 307.63 661.49 306.52 660.75 305.42L661.58 304.86C662.32 305.96 663.07 307.07 663.82 308.16L663 308.73ZM658.53 302.07C657.8 300.95 657.09 299.81 656.39 298.67L657.24 298.15C657.94 299.29 658.65 300.41 659.37 301.53L658.53 302.07ZM654.36 295.2C653.68 293.99 653.05 292.79 652.48 291.64L653.38 291.19C653.94 292.33 654.57 293.51 655.23 294.71L654.36 295.2ZM650.81 288C650.28 286.75 649.81 285.48 649.37 284.24L650.37 283.92C650.79 285.13 651.26 286.38 651.78 287.61L650.81 288ZM648.21 280.37C647.88 279.07 647.59 277.74 647.37 276.37L648.37 276.21C648.59 277.49 648.86 278.79 649.19 280.07L648.21 280.37ZM646.87 272.37C646.77 271.14 646.72 269.9 646.72 268.66V268.33H647.72V268.65C647.72 269.86 647.72 271.08 647.87 272.28L646.87 272.37ZM647.87 264.37L646.87 264.27C646.87 264 646.92 263.72 646.95 263.43C647.07 262.36 647.22 261.29 647.4 260.27L648.4 260.44C648.23 261.44 648.08 262.49 647.96 263.54C648 263.85 648 264.12 647.92 264.4L647.87 264.37ZM649.26 256.59L648.26 256.32C648.63 255 649.06 253.71 649.54 252.48L650.47 252.84C650.015 254.078 649.628 255.34 649.31 256.62L649.26 256.59ZM699.09 250.76C698.53 250.76 697.95 250.68 697.38 250.6C696.6 250.49 695.82 250.36 695.05 250.21L695.25 249.21C695.99 249.35 696.76 249.48 697.52 249.59C698.06 249.66 698.61 249.71 699.14 249.74L699.09 250.76ZM703.2 250.45L702.99 249.45C704.245 249.191 705.448 248.724 706.55 248.07L707.07 248.92C705.892 249.649 704.601 250.176 703.25 250.48L703.2 250.45ZM652.14 249.26L651.25 248.79C651.887 247.597 652.591 246.442 653.36 245.33L654.18 245.9C653.449 246.989 652.784 248.121 652.19 249.29L652.14 249.26ZM691.14 249.2C689.849 248.79 688.58 248.313 687.34 247.77L687.75 246.85C688.952 247.384 690.184 247.848 691.44 248.24L691.14 249.2ZM710.14 246.08L709.31 245.52C710.022 244.487 710.443 243.282 710.53 242.03L711.53 242.1C711.445 243.535 710.975 244.92 710.17 246.11L710.14 246.08ZM683.74 245.93C682.569 245.25 681.438 244.505 680.35 243.7L680.94 242.9C681.999 243.681 683.1 244.402 684.24 245.06L683.74 245.93ZM656.64 242.81L655.9 242.14C656.805 241.133 657.77 240.181 658.79 239.29L659.45 240.04C658.469 240.918 657.54 241.853 656.67 242.84L656.64 242.81ZM677.23 241.12C676.234 240.203 675.289 239.231 674.4 238.21L675.15 237.55C676.015 238.542 676.933 239.486 677.9 240.38L677.23 241.12ZM709.78 238.41C709.207 237.267 708.415 236.248 707.45 235.41L708.11 234.66C709.172 235.579 710.045 236.697 710.68 237.95L709.78 238.41ZM662.56 237.62L661.99 236.8C663.109 236.036 664.267 235.332 665.46 234.69L665.93 235.57C664.781 236.205 663.666 236.899 662.59 237.65L662.56 237.62ZM671.9 235.02C671.52 234.48 671.15 233.93 670.8 233.36L669.5 233.87L669.12 232.95L670.27 232.49C670.09 232.19 669.91 231.89 669.74 231.59L670.61 231.1C670.81 231.45 671.01 231.8 671.22 232.1C671.78 231.9 672.35 231.71 672.93 231.53L673.22 232.53C672.73 232.68 672.22 232.84 671.76 233.01C672.07 233.5 672.39 234.01 672.76 234.44L671.9 235.02ZM704.23 233.3C703.262 232.818 702.259 232.41 701.23 232.08L700.57 231.87L700.86 230.87L701.54 231.09C702.611 231.431 703.654 231.856 704.66 232.36L704.23 233.3ZM677.05 231.51L676.84 230.51C678.13 230.22 679.47 229.98 680.84 229.79L680.99 230.79C679.67 231 678.36 231.25 677.08 231.54L677.05 231.51ZM696.75 230.97C695.5 230.75 694.18 230.58 692.83 230.46L692.91 229.46C694.3 229.58 695.65 229.75 696.91 229.98L696.75 230.97ZM684.9 230.39L684.83 229.39C686.02 229.32 687.21 229.28 688.39 229.28H688.88V230.28H688.4C687.27 230.31 686.09 230.34 684.93 230.42L684.9 230.39ZM668 228C667.46 226.78 667 225.51 666.55 224.22L667.55 223.91C667.97 225.17 668.44 226.41 668.96 227.6L668 228ZM665.47 220.32C665.17 219.03 664.92 217.69 664.73 216.32L665.73 216.18C665.92 217.5 666.16 218.81 666.45 220.08L665.47 220.32ZM664.35 212.32C664.3 211.42 664.27 210.5 664.27 209.58C664.27 209.15 664.27 208.71 664.27 208.28H665.27C665.27 208.71 665.27 209.13 665.27 209.56C665.27 210.46 665.27 211.37 665.34 212.24L664.35 212.32ZM665.54 204.32L664.54 204.22C664.68 202.9 664.87 201.55 665.1 200.22L666.1 200.39C665.83 201.72 665.64 203 665.51 204.34L665.54 204.32ZM666.91 196.51L665.91 196.27C666.23 194.98 666.6 193.68 667.01 192.38L668.01 192.69C667.56 194 667.19 195.27 666.88 196.53L666.91 196.51ZM669.31 188.94L668.38 188.58C668.87 187.33 669.38 186.08 669.99 184.87L670.89 185.31C670.29 186.51 669.76 187.73 669.28 189L669.31 188.94ZM672.75 181.81L671.88 181.3C672.56 180.15 673.29 179 674.05 177.9L674.87 178.47C674.09 179.57 673.38 180.69 672.72 181.83L672.75 181.81ZM677.26 175.3L676.48 174.67C677.32 173.67 678.22 172.61 679.15 171.67L679.87 172.36C678.93 173.3 678.05 174.3 677.23 175.32L677.26 175.3ZM682.7 169.54L682.03 168.8C683.03 167.91 684.03 167.03 685.1 166.18L685.72 166.97C684.65 167.82 683.63 168.69 682.67 169.56L682.7 169.54ZM688.91 164.6L688.34 163.77C689.43 163.02 690.57 162.28 691.73 161.58L692.24 162.43C691.08 163.14 690 163.87 688.88 164.62L688.91 164.6ZM695.7 160.47L695.23 159.59C696.41 158.96 697.63 158.36 698.85 157.8L699.27 158.71C698 159.28 696.83 159.88 695.67 160.49L695.7 160.47ZM702.93 157.15L702.56 156.21C703.82 155.72 705.09 155.21 706.35 154.84L706.67 155.84C705.4 156.22 704.14 156.68 702.9 157.17L702.93 157.15Z" fill="#263238"/>
<path d="M710.64 154.62L710.39 153.62C711.63 153.3 712.39 153.16 712.39 153.16L712.57 154.16C712.57 154.16 711.85 154.31 710.64 154.62Z" fill="#263238"/>
<path d="M728.32 148.16C725.77 140.26 708.69 143.1 712.02 153.43C715.35 163.76 730.87 156.07 728.32 148.16Z" fill="#263238"/>
<path d="M702.73 145C702.86 141.53 707.68 138.86 714.5 140.09C721.32 141.32 727.73 145.92 727.73 145.92C727.73 145.92 721 150 714.11 150.75C707.22 151.5 702.6 148.46 702.73 145Z" fill="#EBEBEB"/>
<path d="M727.73 145.9C724.19 145.9 720.66 145.8 717.13 145.69C713.6 145.58 710.06 145.4 706.53 145.12C710.07 145.12 713.61 145.21 717.14 145.32C720.67 145.43 724.21 145.61 727.73 145.9Z" fill="#263238"/>
<path d="M709.58 141.91C711.59 142.871 713.485 144.056 715.23 145.44C714.224 144.968 713.249 144.434 712.31 143.84C711.363 143.25 710.452 142.606 709.58 141.91Z" fill="#263238"/>
<path d="M718.85 145.57C717.041 147.036 715.08 148.303 713 149.35C714.818 147.882 716.79 146.615 718.88 145.57H718.85Z" fill="#263238"/>
<path d="M719.88 143.62C720.889 144.105 721.772 144.817 722.46 145.7C721.955 145.462 721.482 145.163 721.05 144.81C720.616 144.459 720.223 144.06 719.88 143.62Z" fill="#263238"/>
<path d="M709.23 165.55C711.36 168.29 716.83 167.63 721.64 162.65C726.45 157.67 729 150.18 729 150.18C729 150.18 721.12 150.78 715.11 154.18C709.1 157.58 707.09 162.8 709.23 165.55Z" fill="#EBEBEB"/>
<path d="M729 150.18C726.12 152.18 723.32 154.4 720.51 156.55C717.7 158.7 714.95 160.92 712.26 163.21C715.14 161.21 717.94 159 720.74 156.85C723.54 154.7 726.27 152.48 729 150.18Z" fill="#263238"/>
<path d="M716.58 164C717.115 163.029 717.592 162.027 718.01 161C718.436 159.97 718.796 158.915 719.09 157.84C718.554 158.811 718.076 159.812 717.66 160.84C717.239 161.871 716.878 162.926 716.58 164Z" fill="#263238"/>
<path d="M722 155.64C719.66 155.515 717.314 155.639 715 156.01C716.166 156.08 717.334 156.08 718.5 156.01C719.673 155.953 720.841 155.829 722 155.64Z" fill="#263238"/>
<path d="M723.93 156.63C724.197 156.136 724.405 155.613 724.55 155.07C724.698 154.531 724.785 153.978 724.81 153.42C724.278 154.41 723.977 155.507 723.93 156.63Z" fill="#263238"/>
<path d="M728.32 148.16C727.755 148.343 727.149 148.355 726.577 148.194C726.006 148.032 725.495 147.705 725.11 147.253C724.725 146.801 724.483 146.245 724.414 145.655C724.345 145.065 724.453 144.468 724.723 143.94C724.994 143.411 725.415 142.975 725.934 142.686C726.453 142.397 727.045 142.268 727.637 142.317C728.229 142.365 728.793 142.588 729.258 142.957C729.724 143.326 730.069 143.825 730.25 144.39C730.493 145.146 730.426 145.967 730.064 146.674C729.702 147.38 729.075 147.915 728.32 148.16Z" fill="#455A64"/>
<path d="M730.16 153.87C729.595 154.053 728.99 154.064 728.419 153.902C727.848 153.74 727.338 153.413 726.953 152.962C726.568 152.51 726.326 151.955 726.257 151.366C726.188 150.776 726.295 150.18 726.564 149.651C726.834 149.123 727.255 148.687 727.772 148.397C728.29 148.108 728.882 147.978 729.474 148.025C730.065 148.072 730.629 148.293 731.095 148.661C731.561 149.028 731.907 149.526 732.09 150.09C732.212 150.465 732.258 150.86 732.227 151.253C732.196 151.646 732.087 152.029 731.908 152.38C731.729 152.731 731.482 153.043 731.182 153.299C730.882 153.555 730.535 153.749 730.16 153.87Z" fill="#455A64"/>
<path d="M402.31 151.32C401.831 155.913 400.085 160.283 397.267 163.941C394.449 167.6 390.669 170.403 386.351 172.039C382.032 173.675 377.344 174.078 372.809 173.204C368.274 172.33 364.072 170.213 360.67 167.09L348.2 168.92L354.44 158.14C353.013 154.632 352.404 150.846 352.66 147.068C352.916 143.289 354.029 139.619 355.915 136.336C357.801 133.052 360.411 130.242 363.546 128.118C366.681 125.994 370.259 124.613 374.008 124.078C377.757 123.544 381.579 123.872 385.182 125.035C388.786 126.199 392.076 128.169 394.805 130.795C397.533 133.421 399.627 136.634 400.927 140.191C402.228 143.747 402.701 147.553 402.31 151.32Z" fill="white"/>
<path d="M402.31 151.32C401.841 155.911 400.111 160.282 397.31 163.95C395.942 165.805 394.292 167.435 392.42 168.78C390.589 170.176 388.569 171.304 386.42 172.13C384.27 172.977 382.011 173.515 379.71 173.73C378.56 173.833 377.404 173.857 376.25 173.8C375.093 173.77 373.939 173.65 372.8 173.44C368.205 172.594 363.935 170.486 360.47 167.35L360.76 167.44L348.31 169.35L347.4 169.49L347.86 168.69L354.06 157.89V158.32C352.597 154.748 351.975 150.887 352.242 147.036C352.509 143.184 353.658 139.446 355.6 136.11C357.54 132.784 360.207 129.94 363.4 127.79C366.589 125.669 370.217 124.297 374.011 123.777C377.806 123.258 381.669 123.604 385.31 124.79C388.913 126.016 392.197 128.032 394.92 130.69C397.638 133.342 399.716 136.578 400.996 140.152C402.277 143.727 402.726 147.546 402.31 151.32ZM402.31 151.32C402.714 147.564 402.25 143.766 400.953 140.219C399.656 136.671 397.561 133.469 394.83 130.86C392.099 128.251 388.805 126.304 385.202 125.17C381.599 124.036 377.784 123.745 374.05 124.32C370.355 124.867 366.834 126.256 363.76 128.38C360.713 130.521 358.168 133.298 356.3 136.52C354.462 139.749 353.378 143.352 353.13 147.06C352.887 150.793 353.488 154.532 354.89 158L354.98 158.22L354.86 158.43L348.58 169.19L348.14 168.53L360.62 166.78H360.79L360.91 166.89C364.246 169.995 368.381 172.111 372.85 173C373.964 173.227 375.095 173.364 376.23 173.41C377.366 173.49 378.505 173.49 379.64 173.41C381.917 173.227 384.158 172.732 386.3 171.94C388.448 171.158 390.469 170.067 392.3 168.7C394.164 167.366 395.816 165.757 397.2 163.93C400.037 160.28 401.806 155.915 402.31 151.32Z" fill="#263238"/>
<path d="M365.34 160.35C365.321 160.019 365.37 159.687 365.484 159.376C365.598 159.065 365.775 158.78 366.004 158.54C366.233 158.3 366.509 158.11 366.814 157.981C367.12 157.852 367.448 157.787 367.78 157.79C368.459 157.79 369.11 158.06 369.59 158.54C370.07 159.02 370.34 159.671 370.34 160.35C370.34 161.029 370.07 161.68 369.59 162.16C369.11 162.64 368.459 162.91 367.78 162.91C367.448 162.913 367.12 162.848 366.814 162.719C366.509 162.59 366.233 162.4 366.004 162.16C365.775 161.92 365.598 161.635 365.484 161.324C365.37 161.013 365.321 160.681 365.34 160.35ZM366.34 154.44L365.76 134.6H369.76L369.18 154.44H366.34Z" fill="#0A5FCD"/>
<path d="M374.851 160.35C374.832 160.02 374.88 159.689 374.994 159.378C375.108 159.068 375.284 158.784 375.512 158.544C375.739 158.304 376.014 158.113 376.318 157.984C376.622 157.854 376.95 157.788 377.281 157.79C377.96 157.79 378.611 158.06 379.091 158.54C379.571 159.02 379.841 159.671 379.841 160.35C379.841 161.029 379.571 161.68 379.091 162.16C378.611 162.64 377.96 162.91 377.281 162.91C376.95 162.912 376.622 162.846 376.318 162.716C376.014 162.587 375.739 162.396 375.512 162.156C375.284 161.916 375.108 161.632 374.994 161.322C374.88 161.011 374.832 160.68 374.851 160.35ZM375.851 154.44L375.301 134.6H379.301L378.721 154.44H375.851Z" fill="#0A5FCD"/>
<path d="M384.351 160.35C384.332 160.019 384.381 159.687 384.495 159.376C384.609 159.065 384.786 158.78 385.015 158.54C385.244 158.3 385.519 158.11 385.825 157.981C386.13 157.852 386.459 157.787 386.791 157.79C387.47 157.79 388.121 158.06 388.601 158.54C389.081 159.02 389.351 159.671 389.351 160.35C389.351 161.029 389.081 161.68 388.601 162.16C388.121 162.64 387.47 162.91 386.791 162.91C386.459 162.913 386.13 162.848 385.825 162.719C385.519 162.59 385.244 162.4 385.015 162.16C384.786 161.92 384.609 161.635 384.495 161.324C384.381 161.013 384.332 160.681 384.351 160.35ZM385.351 154.44L384.771 134.6H388.771L388.201 154.44H385.351Z" fill="#0A5FCD"/>
</svg>
